<?xml version="1.0" encoding="UTF-8" standalone="no"?>
<!-- Created with Inkscape (http://www.inkscape.org/) -->

<svg
   xmlns:dc="http://purl.org/dc/elements/1.1/"
   xmlns:cc="http://creativecommons.org/ns#"
   xmlns:rdf="http://www.w3.org/1999/02/22-rdf-syntax-ns#"
   xmlns:svg="http://www.w3.org/2000/svg"
   xmlns="http://www.w3.org/2000/svg"
   xmlns:sodipodi="http://sodipodi.sourceforge.net/DTD/sodipodi-0.dtd"
   xmlns:inkscape="http://www.inkscape.org/namespaces/inkscape"
   width="744.09448819"
   height="1052.3622047"
   id="svg2986"
   version="1.1"
   inkscape:version="0.48.3.1 r9886"
   sodipodi:docname="icons.svg">
  <defs
     id="defs2988" />
  <sodipodi:namedview
     id="base"
     pagecolor="#ffffff"
     bordercolor="#666666"
     borderopacity="1.0"
     inkscape:pageopacity="0.0"
     inkscape:pageshadow="2"
     inkscape:zoom="1"
     inkscape:cx="166.74929"
     inkscape:cy="863.39621"
     inkscape:document-units="px"
     inkscape:current-layer="layer1"
     showgrid="false"
     inkscape:window-width="859"
     inkscape:window-height="736"
     inkscape:window-x="763"
     inkscape:window-y="99"
     inkscape:window-maximized="0" />
  <metadata
     id="metadata2991">
    <rdf:RDF>
      <cc:Work
         rdf:about="">
        <dc:format>image/svg+xml</dc:format>
        <dc:type
           rdf:resource="http://purl.org/dc/dcmitype/StillImage" />
        <dc:title></dc:title>
      </cc:Work>
    </rdf:RDF>
  </metadata>
  <g
     inkscape:label="Layer 1"
     inkscape:groupmode="layer"
     id="layer1">
    <path
       inkscape:connector-curvature="0"
       d="m 6.67857,3.02647 h -2.25 v -1.35 c 0,-0.33135 -0.26865,-0.6 -0.6,-0.6 -0.33135,0 -0.6,0.26865 -0.6,0.6 v 1.35765 c -1.00665,0.07665 -1.8,0.91605 -1.8,1.94235 v 9.15 c 0,1.077 0.873,1.95 1.95,1.95 h 3.3 c 1.077,0 1.95,-0.873 1.95,-1.95 v -9.15 c 0,-1.077 -0.873,-1.95 -1.95,-1.95 z m 0.9,4.95 c -0.0525,0.1572 -0.1344,0.3 -0.3,0.3 h -4.5 c -0.1656,0 -0.2475,-0.1428 -0.3,-0.3 -0.15,-0.45 -0.15,-0.45 -0.15,-3.3 0,-0.1656 0.1344,-0.3 0.3,-0.3 h 4.8 c 0.1656,0 0.3,0.1344 0.3,0.3 0,2.85 0,2.85 -0.15,3.3 z"
       id="path3"
       inkscape:export-filename="/home/nickreid/Documents/JustAskSF/pcsi_recommends/pchsi_recommends/static/pchsi-recommends/i/logos.png"
       inkscape:export-xdpi="90"
       inkscape:export-ydpi="90" />
    <polygon
       transform="matrix(0.15,0,0,0.15,17.242855,2.362184)"
       points="50,61.447 99.998,27.447 99.998,83 0,83 0,27.447 "
       id="polygon3"
       inkscape:export-filename="/home/nickreid/Documents/JustAskSF/pcsi_recommends/pchsi_recommends/static/pchsi-recommends/i/logos.png"
       inkscape:export-xdpi="90"
       inkscape:export-ydpi="90" />
    <polygon
       transform="matrix(0.15,0,0,0.15,17.242855,2.362184)"
       points="50,51 100,17 0,17 "
       id="polygon5"
       inkscape:export-filename="/home/nickreid/Documents/JustAskSF/pcsi_recommends/pchsi_recommends/static/pchsi-recommends/i/logos.png"
       inkscape:export-xdpi="90"
       inkscape:export-ydpi="90" />
    <g
       transform="matrix(0.15,0,0,0.15,45.815049,1.244863)"
       id="g3"
       inkscape:export-filename="/home/nickreid/Documents/JustAskSF/pcsi_recommends/pchsi_recommends/static/pchsi-recommends/i/logos.png"
       inkscape:export-xdpi="90"
       inkscape:export-ydpi="90">
      <rect
         style="fill:#000000"
         x="31"
         y="56.139"
         width="38"
         height="2.9960001"
         id="rect5" />
      <rect
         style="fill:#000000"
         x="31"
         y="67.137001"
         width="38"
         height="3.003"
         id="rect7" />
      <rect
         style="fill:#000000"
         x="31"
         y="78.136002"
         width="38"
         height="3.0020001"
         id="rect9" />
      <path
         style="fill:#000000"
         inkscape:connector-curvature="0"
         d="M 100,27.682 H 78.998 V 6.686 H 21.002 V 27.683 H 0 V 75.68 H 20.206 V 93.315 H 78.998 V 75.68 H 100 V 27.682 z M 25,10.684 H 75 V 27.683 H 25 V 10.684 z M 75.061,89.316 H 24.851 V 46.594 h 50.21 v 42.722 z"
         id="path11" />
    </g>
  </g>
</svg>
